<svg xmlns="http://www.w3.org/2000/svg" width="1000" height="750" viewBox="0 0 1000 750"><rect width="1000" height="750" fill="white"/><g fill="none" stroke="black" stroke-width="3" stroke-linecap="round" stroke-linejoin="round"><path d="M50,375 L150,350 L250,420 L350,300 L450,450 L550,250 L650,480 L750,280 L850,400 L950,375"/><path d="M100,200 L250,100 L400,180 L500,80 L600,180 L750,100 L900,200"/><path d="M100,550 L250,650 L400,570 L500,670 L600,570 L750,650 L900,550"/><path d="M150,250 L180,220 L210,280 L240,210 L270,290 L300,240"/><path d="M700,240 L730,290 L760,210 L790,280 L820,220 L850,250"/><path d="M500,200 L470,280 L400,320 L350,375 L400,430 L470,470 L500,550 L530,470 L600,430 L650,375 L600,320 L530,280 L500,200"/><path d="M50,50 L500,40 L950,50"/><path d="M50,700 L500,710 L950,700"/></g></svg>
